<svg height='300px' width='300px'  fill="#000000" xmlns="http://www.w3.org/2000/svg" xmlns:xlink="http://www.w3.org/1999/xlink" version="1.1" x="0px" y="0px" viewBox="0 0 100 100" style="enable-background:new 0 0 100 100;" xml:space="preserve"><path d="M79.604,85.989l-1.275,0.964l1.382,0.803c0.343,0.193,0.6,0.504,0.718,0.868l0.525,1.5l1.189-1.072  c0.289-0.268,0.664-0.407,1.05-0.418l1.029-0.021l-1.789-4.457c-0.107,0.021-0.225,0.043-0.354,0.043  c-0.332,0-0.654-0.107-0.932-0.3l-0.611-0.428l-0.332,1.564C80.129,85.411,79.914,85.754,79.604,85.989z"></path><path d="M50,5c-0.204,0-0.868,0.054-1.157,0.782L37.711,33.671c0.364-0.032,0.696-0.043,1.029-0.054  c1.232-0.043,2.304-0.075,4.136-0.996c1.436-0.729,2.121-1.393,2.646-1.982c0.321-0.364,0.761-0.557,1.211-0.557  c0.375,0,0.75,0.129,1.05,0.396c0.675,0.579,0.739,1.596,0.161,2.261c-0.664,0.761-1.671,1.757-3.621,2.743  c-2.464,1.254-4.061,1.307-5.475,1.35c-0.836,0.032-1.596,0.064-2.539,0.354L22.85,70.893c0.707-0.493,1.307-0.964,1.907-1.446  c1.543-1.211,3.129-2.464,6.407-4.125c3.043-1.543,5.004-1.95,6.75-2.239c0.782-0.129,1.521,0.321,1.779,1.029  c0.032,0.096,0.054,0.193,0.075,0.289c0.139,0.879-0.45,1.704-1.329,1.854c-1.564,0.257-3.182,0.6-5.829,1.929  c-2.989,1.521-4.382,2.625-5.85,3.782c-1.446,1.146-2.957,2.336-5.871,3.857l-6.6,16.532c-0.236,0.6-0.171,1.264,0.193,1.8  c0.321,0.471,0.814,0.761,1.361,0.836C15.918,95,15.993,95,16.079,95h15.279c3.793-1.886,6.289-2.636,8.7-3.343  c2.454-0.729,4.779-1.414,8.518-3.311c3.696-1.864,5.25-3.236,6.9-4.693c1.618-1.436,3.3-2.904,6.846-4.779  c0.718-0.386,1.586-0.161,2.046,0.482c0.043,0.064,0.086,0.129,0.118,0.193c0.418,0.782,0.118,1.757-0.664,2.164  c-3.214,1.693-4.671,2.979-6.225,4.35c-1.725,1.521-3.514,3.096-7.564,5.154c-4.007,2.025-6.579,2.786-9.064,3.514  c-0.289,0.096-0.589,0.182-0.889,0.268h43.843c0.086,0,0.161,0,0.236-0.011c0.546-0.075,1.039-0.364,1.361-0.836  c0.364-0.536,0.429-1.2,0.193-1.8l-0.236-0.579c-0.107,0.021-0.214,0.032-0.332,0.043l-1.296,0.021l-2.539,2.303  c-0.3,0.268-0.686,0.407-1.071,0.407c-0.139,0-0.268-0.011-0.407-0.043c-0.514-0.139-0.943-0.525-1.114-1.029l-1.125-3.236  l-2.968-1.704c-0.471-0.279-0.771-0.761-0.804-1.296c-0.032-0.536,0.204-1.061,0.632-1.382l2.732-2.068l0.696-3.364  c0.118-0.525,0.482-0.964,0.986-1.157c0.504-0.204,1.071-0.139,1.511,0.171l0.246,0.182l-1.296-3.279  c-3.054,1.393-5.046,1.832-6.964,2.25c-1.468,0.311-2.85,0.611-4.736,1.361c-0.193,0.064-0.386,0.107-0.589,0.107  c-0.557,0-1.093-0.3-1.382-0.803c-0.043-0.064-0.075-0.139-0.107-0.225c-0.321-0.825,0.086-1.757,0.911-2.078  c2.121-0.836,3.696-1.168,5.218-1.5c1.864-0.407,3.632-0.793,6.45-2.1l-8.55-21.429c-2.379,1.029-3.996,1.296-5.571,1.543  c-1.746,0.279-3.396,0.546-6.311,2.025c-2.914,1.468-4.104,2.636-5.357,3.879c-1.382,1.371-2.807,2.775-6.161,4.468  c-0.889,0.45-1.725,0.825-2.529,1.136c-0.193,0.075-0.386,0.107-0.579,0.107c-0.643,0-1.254-0.386-1.5-1.029  c-0.321-0.825,0.096-1.757,0.921-2.079c0.707-0.268,1.436-0.6,2.229-0.996c2.914-1.479,4.104-2.646,5.357-3.889  c1.382-1.361,2.807-2.775,6.171-4.468C59.6,50.921,61.582,50.6,63.5,50.3c1.436-0.236,2.818-0.461,4.886-1.35l-1.521-3.814  l-2.025,1.832c-0.3,0.268-0.686,0.418-1.071,0.418c-0.139,0-0.268-0.021-0.407-0.054c-0.514-0.139-0.943-0.525-1.114-1.029  l-1.125-3.236l-2.968-1.704c-0.471-0.268-0.771-0.75-0.804-1.296c-0.043-0.536,0.204-1.05,0.632-1.382l2.732-2.068l0.696-3.354  c0.064-0.3,0.214-0.557,0.407-0.771l-1.993-4.982c-1.554,0.536-2.721,0.579-3.771,0.611c-1.243,0.043-2.304,0.075-4.146,1.007  c-0.514,0.257-0.954,0.525-1.35,0.804c-0.279,0.204-0.6,0.3-0.932,0.3c-0.504,0-0.996-0.236-1.307-0.675  c-0.054-0.064-0.096-0.139-0.129-0.214c-0.354-0.696-0.15-1.564,0.504-2.025c0.525-0.375,1.104-0.718,1.768-1.061  c2.464-1.254,4.071-1.296,5.486-1.35c0.868-0.021,1.661-0.054,2.689-0.386l-1.125-2.829c-0.289,0.364-0.729,0.6-1.221,0.611  l-1.296,0.021l-2.539,2.304c-0.3,0.268-0.686,0.407-1.082,0.407c-0.129,0-0.268-0.011-0.396-0.043  c-0.525-0.139-0.943-0.525-1.114-1.029l-1.125-3.236l-2.979-1.704c-0.461-0.268-0.761-0.761-0.804-1.296  c-0.032-0.536,0.204-1.061,0.632-1.382l2.743-2.068l0.696-3.354C49.132,10.389,49.507,9.95,50,9.757  c0.504-0.204,1.071-0.139,1.521,0.171l1.789,1.254l-2.154-5.4C50.868,5.054,50.204,5,50,5z M53.589,67.293l2.732-2.068l0.696-3.354  c0.118-0.536,0.482-0.975,0.986-1.168c0.493-0.204,1.061-0.139,1.511,0.171l2.807,1.961l3.407-0.375  c0.546-0.054,1.071,0.161,1.414,0.579c0.343,0.407,0.461,0.975,0.3,1.489l-0.996,3.279l1.414,3.129  c0.214,0.493,0.171,1.061-0.118,1.511c-0.289,0.461-0.782,0.739-1.318,0.75l-3.429,0.075l-2.539,2.303  c-0.3,0.268-0.686,0.407-1.082,0.407c-0.129,0-0.268-0.011-0.396-0.043c-0.525-0.139-0.943-0.525-1.114-1.029l-1.125-3.236  l-2.979-1.714c-0.471-0.268-0.771-0.75-0.804-1.286C52.925,68.139,53.161,67.614,53.589,67.293z M41.761,75.511  c0.354,0.418,0.461,0.975,0.311,1.489l-0.996,3.279l1.404,3.129c0.225,0.493,0.182,1.061-0.107,1.521  c-0.289,0.45-0.782,0.729-1.329,0.739l-3.418,0.075l-2.539,2.303c-0.3,0.268-0.686,0.418-1.082,0.418  c-0.139,0-0.268-0.021-0.396-0.054c-0.525-0.129-0.943-0.525-1.125-1.029l-1.125-3.236l-2.968-1.704  c-0.471-0.268-0.771-0.75-0.814-1.296c-0.032-0.536,0.204-1.05,0.643-1.382l2.721-2.068l0.707-3.354  c0.107-0.525,0.482-0.964,0.975-1.168c0.504-0.193,1.071-0.129,1.511,0.171l2.818,1.961l3.407-0.364  C40.893,74.879,41.418,75.093,41.761,75.511z M47.611,52.861c-0.289,0.461-0.793,0.739-1.329,0.75l-3.429,0.075l-2.539,2.293  c-0.3,0.279-0.686,0.418-1.071,0.418c-0.139,0-0.268-0.011-0.407-0.043c-0.514-0.139-0.943-0.525-1.114-1.029l-1.125-3.246  l-2.979-1.704c-0.461-0.268-0.771-0.75-0.804-1.286c-0.032-0.536,0.204-1.061,0.632-1.382l2.732-2.079l0.707-3.354  c0.107-0.525,0.471-0.964,0.975-1.157c0.504-0.204,1.071-0.139,1.511,0.171l2.818,1.961l3.407-0.375  c0.536-0.054,1.061,0.161,1.404,0.568c0.343,0.418,0.461,0.975,0.3,1.5l-0.986,3.279l1.404,3.129  C47.932,51.832,47.9,52.411,47.611,52.861z"></path><path d="M37.829,79.925l0.461-1.532l-1.596,0.171c-0.386,0.043-0.771-0.053-1.082-0.279l-1.318-0.911l-0.332,1.564  c-0.075,0.386-0.289,0.718-0.6,0.954l-1.275,0.964l1.393,0.793c0.332,0.193,0.589,0.504,0.718,0.868l0.525,1.511l1.189-1.071  c0.289-0.257,0.654-0.407,1.039-0.418l1.607-0.032l-0.664-1.457C37.743,80.696,37.711,80.3,37.829,79.925z"></path><path d="M59.568,70.046l0.525,1.511l1.189-1.071c0.289-0.268,0.664-0.407,1.05-0.418l1.596-0.032l-0.654-1.457  c-0.161-0.354-0.182-0.761-0.075-1.125l0.461-1.532l-1.586,0.171c-0.396,0.043-0.771-0.054-1.093-0.279l-1.318-0.911l-0.321,1.564  c-0.075,0.375-0.289,0.718-0.6,0.954l-1.275,0.964l1.382,0.793C59.193,69.371,59.45,69.682,59.568,70.046z"></path><path d="M43.057,47.868l0.471-1.532l-1.596,0.171c-0.386,0.043-0.771-0.054-1.093-0.279l-1.307-0.911L39.2,46.882  c-0.075,0.375-0.289,0.718-0.6,0.954L37.325,48.8l1.393,0.793c0.332,0.193,0.589,0.504,0.718,0.868l0.525,1.511l1.179-1.071  c0.289-0.268,0.664-0.407,1.05-0.418l1.596-0.032l-0.654-1.468C42.971,48.629,42.95,48.232,43.057,47.868z"></path><path d="M63.961,41.45l0.525,1.5l1.104-0.996l-1.779-4.457l-0.075,0.364c-0.075,0.386-0.289,0.718-0.6,0.954l-1.286,0.964  l1.393,0.804C63.575,40.775,63.832,41.086,63.961,41.45z"></path><path d="M51.671,13.957l-0.321,1.564c-0.086,0.375-0.3,0.718-0.6,0.954l-1.286,0.964l1.393,0.804  c0.332,0.193,0.589,0.504,0.718,0.868l0.525,1.5l1.179-1.071c0.289-0.268,0.664-0.407,1.05-0.418l1.896-0.032  c0.011,0,0.021,0,0.032,0c0.075,0,0.15,0.011,0.214,0.021l-2.004-5.036c-0.289,0.364-0.739,0.611-1.243,0.611  c-0.332,0-0.664-0.107-0.932-0.3L51.671,13.957z"></path></svg>